# xmcd
#
# Track frame offsets: 
#        150
#        17945
#        31817
#        56530
#        72775
#        90780
#        113500
#        131142
#        147077
#        162730
#        177167
#        194105
#        213880
#        232542
#        246455
#        266605
#
# Disc length: 3940 seconds
#
# Revision: 0
# Processed by: cddbd v1.4PL0 Copyright (c) Steve Scherf et al.
# Submitted via: ExactAudioCopy v0.95a3
#
DISCID=da0f6210
DTITLE=Various Artist - Live From The Slippery Noodle Inn Volume 2
DYEAR=1994
DGENRE=Blues
TTITLE0=The Wolfpack - When I Get Home
TTITLE1=Lamont Gillispie and The Homewreckers - Too Late Brother
TTITLE2=Gene Deer and The Groove Merchants - Don't Turn Your Back On The
TTITLE2=Blues
TTITLE3=Curtis and The Kicks - It's You That Has To Go
TTITLE4=Cooler Kings - Howlin' For My Darling
TTITLE5=Curtis and The Kicks - That's What The Blues Is All About
TTITLE6=Governor Davis and The Blues Ambassadors - Shake Your Money Make
TTITLE6=r
TTITLE7=Harvey and The Bluetones - Nobody Wants To Lose
TTITLE8=Dynamics - I Know You're At Home
TTITLE9=Cooler Kings - Blues Keep Me Worried
TTITLE10=Lamont Gillispie and The Homewreckers - All Your Love
TTITLE11=Harvey and The Bluetones - I Can't Pay You To Mistreat Me No Mo
TTITLE11=re
TTITLE12=The Wolfpack - Do It Right
TTITLE13=Governor Davis and The Blues Ambassadors - Faith
TTITLE14=Cooler Kings - Treat Me So Low Down
TTITLE15=Gene Deer and The Groove Merchants - Whisper In My Ear
EXTD=
EXTT0=
EXTT1=
EXTT2=
EXTT3=
EXTT4=
EXTT5=
EXTT6=
EXTT7=
EXTT8=
EXTT9=
EXTT10=
EXTT11=
EXTT12=
EXTT13=
EXTT14=
EXTT15=
PLAYORDER=
